<svg xmlns="http://www.w3.org/2000/svg" version="1.1" xmlns:xlink="http://www.w3.org/1999/xlink" xmlns:svgjs="http://svgjs.dev/svgjs" width="45" height="40" viewBox="0 0 2000 2250"><g transform="matrix(1,0,0,1,0.0005875000000514774,0)"><svg viewBox="0 0 320 360" data-background-color="#ffffff" preserveAspectRatio="xMidYMid meet" height="2250" width="2000" xmlns="http://www.w3.org/2000/svg" xmlns:xlink="http://www.w3.org/1999/xlink"><g id="tight-bounds" transform="matrix(1,0,0,1,-0.000046999999995023245,0)"><svg viewBox="0 0 320 360" height="360" width="320"><rect width="320.000141" height="360" fill="url(#23305275-1948-4f37-9fe8-d1e5ac176e6a)" mask="url(#b796da3d-00e3-492b-be5c-eb2078f25b20)" data-fill-palette-color="tertiary"></rect><g><svg></svg></g><g><svg viewBox="0 0 320 360" height="360" width="320"><g><path transform="translate(-74.99272,-51.79039) scale(4.65793,4.65793)" d="M20.6 59.9l0.8 1-0.4-1.3c-0.1-0.6-0.8 0.1-0.4 0.3M21.5 59.3c0.3 0.5 0.6 1 0.6 1.5 0 0.7 0.6 1 1.1 1.2-0.7-0.8-1.1-3-1.7-2.7M59.9 16.9c1.7 0 3.3-0.2 5.1 0.2 4.4 1.1 8.1 3.3 10.6 6.4l7 11.2c0.3 2.8 0.9 5.9 0.8 9.3 0.7 0 0.6-1 1.4-1.2-0.8 2-1.2 4.5-1.4 7.4-0.5-1.6 0-4 0.1-5.3-0.7 1.1-1.1 0.3-1.1-0.2 0.1-0.8-0.3-0.7-0.6-1-1.1-1-1.8-2.1-2.6-3.8 0.5-1.3 0.6-3.2-1-4.2-0.5-0.3-1.1-0.8-1.4-1.6-0.4-1.1-1.1-2.4-0.9-4.1 0.1-0.5-1.5 1.1-2.4 0.4-3.9-2.7-7.8-5.8-12.5-8.4-2.5 0-4.3-0.9-5.2-2-0.8-1-0.2-2.3 1-2.4 0.7 0 1.5-0.2 2.1 0.2 0.1-0.4 0.5-0.9 1-0.9M50 14.6l0.2 0.1c1 0.2 1.5 1.6 2.6 1.1 0 0.7 0.1 1.4-0.1 1.9-0.3 0.8-1.2 0.8-1.9 0.8-6.7-0.4-10.6 2.4-14.7 4.8-1.1 0.7-2.3 1.2-3.2 2.1-4.3 4-9 7.7-10.1 15.1l-0.9 8.2c-0.1 0.9-1.1 1.8-0.9 2.9l0.7 4.9c-0.7-0.7-1.1 0.2-0.9 0.6 0.1 0.3 0.5 1.3 1.1 0.4 0.8 1.5 1.6 4.4 2.7 5.7 3.4 4 7.8 7.6 11.4 11.2 0.9-0.2 1.6-0.2 1.8-0.8 0.3 0.6-0.3 1.2-0.8 1.3 1.6 1 3.4 1.9 5.8 2.1 3.1 0.2 6 0.7 8.7 1.4 1.4-0.4 2.8-0.6 4.3-0.7 0.5 0 0.8-0.8 1.4-1l0.1-1c0.6 0.9 0.5-0.3 0.1-0.9 0.7 0.6 0.9 1.1 1.2 1.5 0-0.3 0.8-1.4 0.8-0.1l0.2-1.3c0.3-0.2 0.4 1.1 0.7 0.2 0.3-0.9 0.9-0.2 1.5-0.5-0.2 0.4-0.1 1.2 0.6 0.7l0.8-0.7c0.5 1.2 1.3 0.7 1.7 0.5 4.4-2.8 8.8-6.1 13-9.4l-0.1 1.3 0.5-1.6c0.5 0.5 0.9 0.1 1.1-0.2 0.6-1 1.4-2 2.7-2.9-1.6 4.3-3.5 7.7-5.9 10.5l-1 1.2c0 0.7-0.2 1.6-1 1.7-0.4 0.1-1.2-0.2-1.8 0.4-0.3 0.4 0.7 1.2-0.1 0.6-0.7-0.5-1.4 0-2.2 0.2-0.6 0.2 0.4 0.8 0.6 1.2 0.2 0.4 0.4 0.8 0.3 1.3l-1.1-1.2c-1.3 0.7-2.1 2-3.2 3-0.5 0.4-0.3 1.1-0.3 1.7-0.7 0-1.5-0.2-1.9 0.2-0.3 0.4-0.2 1-0.2 1.6-1-0.1-1.1-1.6-2-1.3-0.9 0.2-1.9 0.3-2.7 0.8 0.6 1.2-1 0.5-0.8 0.7-1.5-0.9-2.8-1.6-4.4-1-3.4-1.1-7.6-0.6-10.7-0.2 0-0.5 0.1-1-0.1-1.1-0.2 0.5-0.8 0.3-0.7 0.3-1.9-1.3-3.8-2.1-5.8-3.2-1.8 0.2-3.5-0.7-4-1.2-1.4-1.3-3-0.6-4.3-0.9-2.8-0.7-3.8-3.6-4.1-5.6-0.2-1-1-1.4-1.3-1.3-1.3-4.2-3.3-8-4.9-11.9-0.4-1-0.3-2-0.3-3.1 0.5 0.2 1 0.1 0.9-0.6-0.5-3.3-1.7-5.8-3-8.2 0.7-3.4 0.8-7.4 2.4-10.4 1.4-2.7 4-4.1 5.8-6.4 0.6-0.8 0.6-1.9 1.2-2.6 2-2 4-4.1 6.2-5.9 1-0.8 2.2 0 3.7-0.3 0.5-1.8 2.5-3.4 4.4-2.9 0.8 0.2 2.4-1.9 2.9-2.1 0.8-0.3 0.4 0.8 0.4 1.5 1.9-1.5 4.5-2.3 6.9-3.2" fill="url(#23305275-1948-4f37-9fe8-d1e5ac176e6a)" fill-rule="nonzero" stroke="none" stroke-width="1" stroke-linecap="butt" stroke-linejoin="miter" stroke-miterlimit="10" stroke-dasharray="" stroke-dashoffset="0" font-family="none" font-weight="none" font-size="none" text-anchor="none" style="mix-blend-mode: normal" data-fill-palette-color="tertiary"></path></g><g transform="matrix(1,0,0,1,71.75302842105262,90)"><svg viewBox="0 0 176.49394315789476 180" height="180" width="176.49394315789476"><g><svg viewBox="0 0 176.49394315789476 180" height="180" width="176.49394315789476"><g><svg viewBox="0 0 176.49394315789476 180" height="180" width="176.49394315789476"><g transform="matrix(1,0,0,1,74.12552210526317,0)"><svg viewBox="0 0 102.36842105263159 180" height="180" width="102.36842105263159"><g id="textblocktransform"><svg viewBox="0 0 102.36842105263159 180" height="180" width="102.36842105263159" id="textblock"><g><svg viewBox="0 0 102.36842105263159 180" height="180" width="102.36842105263159"><g transform="matrix(1,0,0,1,0,0)"><svg width="102.36842105263159" viewBox="3.25 -34.2 19.45 34.2" height="180" data-palette-color="url(#9649ad9f-1cea-4b73-9960-eb2f537a2b5d)"><g class="wordmark-text-0" data-fill-palette-color="primary" id="text-0"></g></svg></g></svg></g></svg></g></svg></g><g transform="matrix(1,0,0,1,0,81.04857489995669)"><svg viewBox="0 0 31.63184210526316 17.90285020008662" height="17.90285020008662" width="31.63184210526316"><g><svg xmlns="http://www.w3.org/2000/svg" xmlns:xlink="http://www.w3.org/1999/xlink" version="1.1" x="0" y="0" viewBox="11.822 31.85491095548784 77.02774999999998 43.59582552640113" enable-background="new 0 0 100 100" xml:space="preserve" height="17.90285020008662" width="31.63184210526316" class="icon-icon-0" data-fill-palette-color="accent" id="icon-0"></svg></g></svg></g></svg></g></svg></g></svg></g></svg></g><defs></defs><mask id="d33a2529-ac98-4603-8fc9-b4a65a855d7a"><g id="SvgjsG3778"><svg viewBox="0 0 320 360" height="360" width="320"><g><svg></svg></g><g><svg viewBox="0 0 320 360" height="360" width="320"><g><path transform="translate(-74.99272,-51.79039) scale(4.65793,4.65793)" d="M20.6 59.9l0.8 1-0.4-1.3c-0.1-0.6-0.8 0.1-0.4 0.3M21.5 59.3c0.3 0.5 0.6 1 0.6 1.5 0 0.7 0.6 1 1.1 1.2-0.7-0.8-1.1-3-1.7-2.7M59.9 16.9c1.7 0 3.3-0.2 5.1 0.2 4.4 1.1 8.1 3.3 10.6 6.4l7 11.2c0.3 2.8 0.9 5.9 0.8 9.3 0.7 0 0.6-1 1.4-1.2-0.8 2-1.2 4.5-1.4 7.4-0.5-1.6 0-4 0.1-5.3-0.7 1.1-1.1 0.3-1.1-0.2 0.1-0.8-0.3-0.7-0.6-1-1.1-1-1.8-2.1-2.6-3.8 0.5-1.3 0.6-3.2-1-4.2-0.5-0.3-1.1-0.8-1.4-1.6-0.4-1.1-1.1-2.4-0.9-4.1 0.1-0.5-1.5 1.1-2.4 0.4-3.9-2.7-7.8-5.8-12.5-8.4-2.5 0-4.3-0.9-5.2-2-0.8-1-0.2-2.3 1-2.4 0.7 0 1.5-0.2 2.1 0.2 0.1-0.4 0.5-0.9 1-0.9M50 14.6l0.2 0.1c1 0.2 1.5 1.6 2.6 1.1 0 0.7 0.1 1.4-0.1 1.9-0.3 0.8-1.2 0.8-1.9 0.8-6.7-0.4-10.6 2.4-14.7 4.8-1.1 0.7-2.3 1.2-3.2 2.1-4.3 4-9 7.7-10.1 15.1l-0.9 8.2c-0.1 0.9-1.1 1.8-0.9 2.9l0.7 4.9c-0.7-0.7-1.1 0.2-0.9 0.6 0.1 0.3 0.5 1.3 1.1 0.4 0.8 1.5 1.6 4.4 2.7 5.7 3.4 4 7.8 7.6 11.4 11.2 0.9-0.2 1.6-0.2 1.8-0.8 0.3 0.6-0.3 1.2-0.8 1.3 1.6 1 3.4 1.9 5.8 2.1 3.1 0.2 6 0.7 8.7 1.4 1.4-0.4 2.8-0.6 4.3-0.7 0.5 0 0.8-0.8 1.4-1l0.1-1c0.6 0.9 0.5-0.3 0.1-0.9 0.7 0.6 0.9 1.1 1.2 1.5 0-0.3 0.8-1.4 0.8-0.1l0.2-1.3c0.3-0.2 0.4 1.1 0.7 0.2 0.3-0.9 0.9-0.2 1.5-0.5-0.2 0.4-0.1 1.2 0.6 0.7l0.8-0.7c0.5 1.2 1.3 0.7 1.7 0.5 4.4-2.8 8.8-6.1 13-9.4l-0.1 1.3 0.5-1.6c0.5 0.5 0.9 0.1 1.1-0.2 0.6-1 1.4-2 2.7-2.9-1.6 4.3-3.5 7.7-5.9 10.5l-1 1.2c0 0.7-0.2 1.6-1 1.7-0.4 0.1-1.2-0.2-1.8 0.4-0.3 0.4 0.7 1.2-0.1 0.6-0.7-0.5-1.4 0-2.2 0.2-0.6 0.2 0.4 0.8 0.6 1.2 0.2 0.4 0.4 0.8 0.3 1.3l-1.1-1.2c-1.3 0.7-2.1 2-3.2 3-0.5 0.4-0.3 1.1-0.3 1.7-0.7 0-1.5-0.2-1.9 0.2-0.3 0.4-0.2 1-0.2 1.6-1-0.1-1.1-1.6-2-1.3-0.9 0.2-1.9 0.3-2.7 0.8 0.6 1.2-1 0.5-0.8 0.7-1.5-0.9-2.8-1.6-4.4-1-3.4-1.1-7.6-0.6-10.7-0.2 0-0.5 0.1-1-0.1-1.1-0.2 0.5-0.8 0.3-0.7 0.3-1.9-1.3-3.8-2.1-5.8-3.2-1.8 0.2-3.5-0.7-4-1.2-1.4-1.3-3-0.6-4.3-0.9-2.8-0.7-3.8-3.6-4.1-5.6-0.2-1-1-1.4-1.3-1.3-1.3-4.2-3.3-8-4.9-11.9-0.4-1-0.3-2-0.3-3.1 0.5 0.2 1 0.1 0.9-0.6-0.5-3.3-1.7-5.8-3-8.2 0.7-3.4 0.8-7.4 2.4-10.4 1.4-2.7 4-4.1 5.8-6.4 0.6-0.8 0.6-1.9 1.2-2.6 2-2 4-4.1 6.2-5.9 1-0.8 2.2 0 3.7-0.3 0.5-1.8 2.5-3.4 4.4-2.9 0.8 0.2 2.4-1.9 2.9-2.1 0.8-0.3 0.4 0.8 0.4 1.5 1.9-1.5 4.5-2.3 6.9-3.2" fill="black" fill-rule="nonzero" stroke="none" stroke-width="1" stroke-linecap="butt" stroke-linejoin="miter" stroke-miterlimit="10" stroke-dasharray="" stroke-dashoffset="0" font-family="none" font-weight="none" font-size="none" text-anchor="none" style="mix-blend-mode: normal"></path></g><g transform="matrix(1,0,0,1,71.75302842105262,90)"><svg viewBox="0 0 176.49394315789476 180" height="180" width="176.49394315789476"><g><svg viewBox="0 0 176.49394315789476 180" height="180" width="176.49394315789476"><g><svg viewBox="0 0 176.49394315789476 180" height="180" width="176.49394315789476"><g transform="matrix(1,0,0,1,74.12552210526317,0)"><svg viewBox="0 0 102.36842105263159 180" height="180" width="102.36842105263159"><g id="SvgjsG3777"><svg viewBox="0 0 102.36842105263159 180" height="180" width="102.36842105263159" id="SvgjsSvg3776"><g><svg viewBox="0 0 102.36842105263159 180" height="180" width="102.36842105263159"><g transform="matrix(1,0,0,1,0,0)"><svg width="102.36842105263159" viewBox="3.25 -34.2 19.45 34.2" height="180" data-palette-color="url(#9649ad9f-1cea-4b73-9960-eb2f537a2b5d)"><g class="wordmark-text-0" data-fill-palette-color="primary" id="SvgjsG3775"><path d="M3.55-34.2L22.7-34.2 22.1-32.05 13.9-32.05 9.4 0 7.05 0 11.6-32.05 3.25-32.05 3.55-34.2Z" fill="white"></path></g></svg></g></svg></g></svg></g></svg></g><g transform="matrix(1,0,0,1,0,81.04857489995669)"><svg viewBox="0 0 31.63184210526316 17.90285020008662" height="17.90285020008662" width="31.63184210526316"><g><svg xmlns="http://www.w3.org/2000/svg" xmlns:xlink="http://www.w3.org/1999/xlink" version="1.1" x="0" y="0" viewBox="11.822 31.85491095548784 77.02774999999998 43.59582552640113" enable-background="new 0 0 100 100" xml:space="preserve" height="17.90285020008662" width="31.63184210526316" class="icon-icon-0" data-fill-palette-color="accent" id="SvgjsSvg3774"><g fill="black"><path d="M17.399 59.888l11.733 11.734c0.621 0.621 1.628 0.621 2.249 0l3.985-3.986c0.621-0.62 0.621-1.627 0-2.248l-10.609-10.61c-0.622-0.62-0.622-1.628 0-2.249l10.609-10.609c0.621-0.622 0.621-1.628 0-2.25l-3.985-3.986c-0.622-0.621-1.628-0.621-2.249 0L17.399 47.418l-5.112 5.11c-0.62 0.621-0.62 1.629 0 2.249L17.399 59.888z" fill="black"></path><path d="M88.384 54.777c0.621-0.62 0.621-1.628 0-2.249l-5.11-5.11L71.54 35.684c-0.621-0.621-1.627-0.621-2.249 0l-3.985 3.986c-0.621 0.621-0.621 1.628 0 2.25l10.608 10.609c0.622 0.621 0.622 1.629 0 2.249l-10.608 10.61c-0.621 0.621-0.621 1.628 0 2.248l3.985 3.986c0.621 0.621 1.628 0.621 2.249 0l11.733-11.734L88.384 54.777z" fill="black"></path></g><path d="M43.502 75.334l-6.684-3.403c-0.492-0.25-0.703-0.823-0.469-1.282l19.506-38.304c0.234-0.457 0.822-0.624 1.314-0.374l6.683 3.403c0.493 0.251 0.703 0.825 0.47 1.282L44.814 74.96C44.581 75.418 43.995 75.585 43.502 75.334z" fill="black"></path></svg></g></svg></g></svg></g></svg></g></svg></g></svg></g><defs><mask></mask></defs></svg><rect width="320" height="360" fill="black" stroke="none" visibility="hidden"></rect></g></mask><linearGradient x1="0" x2="1" y1="0.5" y2="0.5" id="9649ad9f-1cea-4b73-9960-eb2f537a2b5d"><stop stop-color="#f00b51" offset="0"></stop><stop stop-color="#730062" offset="1"></stop></linearGradient><rect width="320.000047" height="360" fill="url(#9649ad9f-1cea-4b73-9960-eb2f537a2b5d)" mask="url(#d33a2529-ac98-4603-8fc9-b4a65a855d7a)" data-fill-palette-color="primary"></rect><mask id="3189e1f5-981f-4c7c-9510-5c50f7b9aca6"><g id="SvgjsG3788"><svg viewBox="0 0 320 360" height="360" width="320"><g><svg></svg></g><g><svg viewBox="0 0 320 360" height="360" width="320"><g><path transform="translate(-74.99272,-51.79039) scale(4.65793,4.65793)" d="M20.6 59.9l0.8 1-0.4-1.3c-0.1-0.6-0.8 0.1-0.4 0.3M21.5 59.3c0.3 0.5 0.6 1 0.6 1.5 0 0.7 0.6 1 1.1 1.2-0.7-0.8-1.1-3-1.7-2.7M59.9 16.9c1.7 0 3.3-0.2 5.1 0.2 4.4 1.1 8.1 3.3 10.6 6.4l7 11.2c0.3 2.8 0.9 5.9 0.8 9.3 0.7 0 0.6-1 1.4-1.2-0.8 2-1.2 4.5-1.4 7.4-0.5-1.6 0-4 0.1-5.3-0.7 1.1-1.1 0.3-1.1-0.2 0.1-0.8-0.3-0.7-0.6-1-1.1-1-1.8-2.1-2.6-3.8 0.5-1.3 0.6-3.2-1-4.2-0.5-0.3-1.1-0.8-1.4-1.6-0.4-1.1-1.1-2.4-0.9-4.1 0.1-0.5-1.5 1.1-2.4 0.4-3.9-2.7-7.8-5.8-12.5-8.4-2.5 0-4.3-0.9-5.2-2-0.8-1-0.2-2.3 1-2.4 0.7 0 1.5-0.2 2.1 0.2 0.1-0.4 0.5-0.9 1-0.9M50 14.6l0.2 0.1c1 0.2 1.5 1.6 2.6 1.1 0 0.7 0.1 1.4-0.1 1.9-0.3 0.8-1.2 0.8-1.9 0.8-6.7-0.4-10.6 2.4-14.7 4.8-1.1 0.7-2.3 1.2-3.2 2.1-4.3 4-9 7.7-10.1 15.1l-0.9 8.2c-0.1 0.9-1.1 1.8-0.9 2.9l0.7 4.9c-0.7-0.7-1.1 0.2-0.9 0.6 0.1 0.3 0.5 1.3 1.1 0.4 0.8 1.5 1.6 4.4 2.7 5.7 3.4 4 7.8 7.6 11.4 11.2 0.9-0.2 1.6-0.2 1.8-0.8 0.3 0.6-0.3 1.2-0.8 1.3 1.6 1 3.4 1.9 5.8 2.1 3.1 0.2 6 0.7 8.7 1.4 1.4-0.4 2.8-0.6 4.3-0.7 0.5 0 0.8-0.8 1.4-1l0.1-1c0.6 0.9 0.5-0.3 0.1-0.9 0.7 0.6 0.9 1.1 1.2 1.5 0-0.3 0.8-1.4 0.8-0.1l0.2-1.3c0.3-0.2 0.4 1.1 0.7 0.2 0.3-0.9 0.9-0.2 1.5-0.5-0.2 0.4-0.1 1.2 0.6 0.7l0.8-0.7c0.5 1.2 1.3 0.7 1.7 0.5 4.4-2.8 8.8-6.1 13-9.4l-0.1 1.3 0.5-1.6c0.5 0.5 0.9 0.1 1.1-0.2 0.6-1 1.4-2 2.7-2.9-1.6 4.3-3.5 7.7-5.9 10.5l-1 1.2c0 0.7-0.2 1.6-1 1.7-0.4 0.1-1.2-0.2-1.8 0.4-0.3 0.4 0.7 1.2-0.1 0.6-0.7-0.5-1.4 0-2.2 0.2-0.6 0.2 0.4 0.8 0.6 1.2 0.2 0.4 0.4 0.8 0.3 1.3l-1.1-1.2c-1.3 0.7-2.1 2-3.2 3-0.5 0.4-0.3 1.1-0.3 1.7-0.7 0-1.5-0.2-1.9 0.2-0.3 0.4-0.2 1-0.2 1.6-1-0.1-1.1-1.6-2-1.3-0.9 0.2-1.9 0.3-2.7 0.8 0.6 1.2-1 0.5-0.8 0.7-1.5-0.9-2.8-1.6-4.4-1-3.4-1.1-7.6-0.6-10.7-0.2 0-0.5 0.1-1-0.1-1.1-0.2 0.5-0.8 0.3-0.7 0.3-1.9-1.3-3.8-2.1-5.8-3.2-1.8 0.2-3.5-0.7-4-1.2-1.4-1.3-3-0.6-4.3-0.9-2.8-0.7-3.8-3.6-4.1-5.6-0.2-1-1-1.4-1.3-1.3-1.3-4.2-3.3-8-4.9-11.9-0.4-1-0.3-2-0.3-3.1 0.5 0.2 1 0.1 0.9-0.6-0.5-3.3-1.7-5.8-3-8.2 0.7-3.4 0.8-7.4 2.4-10.4 1.4-2.7 4-4.1 5.8-6.4 0.6-0.8 0.6-1.9 1.2-2.6 2-2 4-4.1 6.2-5.9 1-0.8 2.2 0 3.7-0.3 0.5-1.8 2.5-3.4 4.4-2.9 0.8 0.2 2.4-1.9 2.9-2.1 0.8-0.3 0.4 0.8 0.4 1.5 1.9-1.5 4.5-2.3 6.9-3.2" fill="black" fill-rule="nonzero" stroke="none" stroke-width="1" stroke-linecap="butt" stroke-linejoin="miter" stroke-miterlimit="10" stroke-dasharray="" stroke-dashoffset="0" font-family="none" font-weight="none" font-size="none" text-anchor="none" style="mix-blend-mode: normal"></path></g><g transform="matrix(1,0,0,1,71.75302842105262,90)"><svg viewBox="0 0 176.49394315789476 180" height="180" width="176.49394315789476"><g><svg viewBox="0 0 176.49394315789476 180" height="180" width="176.49394315789476"><g><svg viewBox="0 0 176.49394315789476 180" height="180" width="176.49394315789476"><g transform="matrix(1,0,0,1,74.12552210526317,0)"><svg viewBox="0 0 102.36842105263159 180" height="180" width="102.36842105263159"><g id="SvgjsG3787"><svg viewBox="0 0 102.36842105263159 180" height="180" width="102.36842105263159" id="SvgjsSvg3786"><g><svg viewBox="0 0 102.36842105263159 180" height="180" width="102.36842105263159"><g transform="matrix(1,0,0,1,0,0)"><svg width="102.36842105263159" viewBox="3.25 -34.2 19.45 34.2" height="180" data-palette-color="url(#9649ad9f-1cea-4b73-9960-eb2f537a2b5d)"><g class="wordmark-text-0" data-fill-palette-color="primary" id="SvgjsG3785"></g></svg></g></svg></g></svg></g></svg></g><g transform="matrix(1,0,0,1,0,81.04857489995669)"><svg viewBox="0 0 31.63184210526316 17.90285020008662" height="17.90285020008662" width="31.63184210526316"><g><svg xmlns="http://www.w3.org/2000/svg" xmlns:xlink="http://www.w3.org/1999/xlink" version="1.1" x="0" y="0" viewBox="11.822 31.85491095548784 77.02774999999998 43.59582552640113" enable-background="new 0 0 100 100" xml:space="preserve" height="17.90285020008662" width="31.63184210526316" class="icon-icon-0" data-fill-palette-color="accent" id="SvgjsSvg3784"><g fill="white"><path d="M17.399 59.888l11.733 11.734c0.621 0.621 1.628 0.621 2.249 0l3.985-3.986c0.621-0.62 0.621-1.627 0-2.248l-10.609-10.61c-0.622-0.62-0.622-1.628 0-2.249l10.609-10.609c0.621-0.622 0.621-1.628 0-2.25l-3.985-3.986c-0.622-0.621-1.628-0.621-2.249 0L17.399 47.418l-5.112 5.11c-0.62 0.621-0.62 1.629 0 2.249L17.399 59.888z" fill="white"></path><path d="M88.384 54.777c0.621-0.62 0.621-1.628 0-2.249l-5.11-5.11L71.54 35.684c-0.621-0.621-1.627-0.621-2.249 0l-3.985 3.986c-0.621 0.621-0.621 1.628 0 2.25l10.608 10.609c0.622 0.621 0.622 1.629 0 2.249l-10.608 10.61c-0.621 0.621-0.621 1.628 0 2.248l3.985 3.986c0.621 0.621 1.628 0.621 2.249 0l11.733-11.734L88.384 54.777z" fill="white"></path></g><path d="M43.502 75.334l-6.684-3.403c-0.492-0.25-0.703-0.823-0.469-1.282l19.506-38.304c0.234-0.457 0.822-0.624 1.314-0.374l6.683 3.403c0.493 0.251 0.703 0.825 0.47 1.282L44.814 74.96C44.581 75.418 43.995 75.585 43.502 75.334z" fill="white"></path></svg></g></svg></g></svg></g></svg></g></svg></g></svg></g><defs><mask></mask></defs><mask><g id="SvgjsG3783"><svg viewBox="0 0 320 360" height="360" width="320"><g><svg></svg></g><g><svg viewBox="0 0 320 360" height="360" width="320"><g><path transform="translate(-74.99272,-51.79039) scale(4.65793,4.65793)" d="M20.6 59.9l0.8 1-0.4-1.3c-0.1-0.6-0.8 0.1-0.4 0.3M21.5 59.3c0.3 0.5 0.6 1 0.6 1.5 0 0.7 0.6 1 1.1 1.2-0.7-0.8-1.1-3-1.7-2.7M59.9 16.9c1.7 0 3.3-0.2 5.1 0.2 4.4 1.1 8.1 3.3 10.6 6.4l7 11.2c0.3 2.8 0.9 5.9 0.8 9.3 0.7 0 0.6-1 1.4-1.2-0.8 2-1.2 4.5-1.4 7.4-0.5-1.6 0-4 0.1-5.3-0.7 1.1-1.1 0.3-1.1-0.2 0.1-0.8-0.3-0.7-0.6-1-1.1-1-1.8-2.1-2.6-3.8 0.5-1.3 0.6-3.2-1-4.2-0.5-0.3-1.1-0.8-1.4-1.6-0.4-1.1-1.1-2.4-0.9-4.1 0.1-0.5-1.5 1.1-2.4 0.4-3.9-2.7-7.8-5.8-12.5-8.4-2.5 0-4.3-0.9-5.2-2-0.8-1-0.2-2.3 1-2.4 0.7 0 1.5-0.2 2.1 0.2 0.1-0.4 0.5-0.9 1-0.9M50 14.6l0.2 0.1c1 0.2 1.5 1.6 2.6 1.1 0 0.7 0.1 1.4-0.1 1.9-0.3 0.8-1.2 0.8-1.9 0.8-6.7-0.4-10.6 2.4-14.7 4.8-1.1 0.7-2.3 1.2-3.2 2.1-4.3 4-9 7.7-10.1 15.1l-0.9 8.2c-0.1 0.9-1.1 1.8-0.9 2.9l0.7 4.9c-0.7-0.7-1.1 0.2-0.9 0.6 0.1 0.3 0.5 1.3 1.1 0.4 0.8 1.5 1.6 4.4 2.7 5.7 3.4 4 7.8 7.6 11.4 11.2 0.9-0.2 1.6-0.2 1.8-0.8 0.3 0.6-0.3 1.2-0.8 1.3 1.6 1 3.4 1.9 5.8 2.1 3.1 0.2 6 0.7 8.7 1.4 1.4-0.4 2.8-0.6 4.3-0.7 0.5 0 0.8-0.8 1.4-1l0.1-1c0.6 0.9 0.5-0.3 0.1-0.9 0.7 0.6 0.9 1.1 1.2 1.5 0-0.3 0.8-1.4 0.8-0.1l0.2-1.3c0.3-0.2 0.4 1.1 0.7 0.2 0.3-0.9 0.9-0.2 1.5-0.5-0.2 0.4-0.1 1.2 0.6 0.7l0.8-0.7c0.5 1.2 1.3 0.7 1.7 0.5 4.4-2.8 8.8-6.1 13-9.4l-0.1 1.3 0.5-1.6c0.5 0.5 0.9 0.1 1.1-0.2 0.6-1 1.4-2 2.7-2.9-1.6 4.3-3.5 7.7-5.9 10.5l-1 1.2c0 0.7-0.2 1.6-1 1.7-0.4 0.1-1.2-0.2-1.8 0.4-0.3 0.4 0.7 1.2-0.1 0.6-0.7-0.5-1.4 0-2.2 0.2-0.6 0.2 0.4 0.8 0.6 1.2 0.2 0.4 0.4 0.8 0.3 1.3l-1.1-1.2c-1.3 0.7-2.1 2-3.2 3-0.5 0.4-0.3 1.1-0.3 1.7-0.7 0-1.5-0.2-1.9 0.2-0.3 0.4-0.2 1-0.2 1.6-1-0.1-1.1-1.6-2-1.3-0.9 0.2-1.9 0.3-2.7 0.8 0.6 1.2-1 0.5-0.8 0.7-1.5-0.9-2.8-1.6-4.4-1-3.4-1.1-7.6-0.6-10.7-0.2 0-0.5 0.1-1-0.1-1.1-0.2 0.5-0.8 0.3-0.7 0.3-1.9-1.3-3.8-2.1-5.8-3.2-1.8 0.2-3.5-0.7-4-1.2-1.4-1.3-3-0.6-4.3-0.9-2.8-0.7-3.8-3.6-4.1-5.6-0.2-1-1-1.4-1.3-1.3-1.3-4.2-3.3-8-4.9-11.9-0.4-1-0.3-2-0.3-3.1 0.5 0.2 1 0.1 0.9-0.6-0.5-3.3-1.7-5.8-3-8.2 0.7-3.4 0.8-7.4 2.4-10.4 1.4-2.7 4-4.1 5.8-6.4 0.6-0.8 0.6-1.9 1.2-2.6 2-2 4-4.1 6.2-5.9 1-0.8 2.2 0 3.7-0.3 0.5-1.8 2.5-3.4 4.4-2.9 0.8 0.2 2.4-1.9 2.9-2.1 0.8-0.3 0.4 0.8 0.4 1.5 1.9-1.5 4.5-2.3 6.9-3.2" fill="black" fill-rule="nonzero" stroke="none" stroke-width="1" stroke-linecap="butt" stroke-linejoin="miter" stroke-miterlimit="10" stroke-dasharray="" stroke-dashoffset="0" font-family="none" font-weight="none" font-size="none" text-anchor="none" style="mix-blend-mode: normal"></path></g><g transform="matrix(1,0,0,1,71.75302842105262,90)"><svg viewBox="0 0 176.49394315789476 180" height="180" width="176.49394315789476"><g><svg viewBox="0 0 176.49394315789476 180" height="180" width="176.49394315789476"><g><svg viewBox="0 0 176.49394315789476 180" height="180" width="176.49394315789476"><g transform="matrix(1,0,0,1,74.12552210526317,0)"><svg viewBox="0 0 102.36842105263159 180" height="180" width="102.36842105263159"><g id="SvgjsG3782"><svg viewBox="0 0 102.36842105263159 180" height="180" width="102.36842105263159" id="SvgjsSvg3781"><g><svg viewBox="0 0 102.36842105263159 180" height="180" width="102.36842105263159"><g transform="matrix(1,0,0,1,0,0)"><svg width="102.36842105263159" viewBox="3.25 -34.2 19.45 34.2" height="180" data-palette-color="url(#9649ad9f-1cea-4b73-9960-eb2f537a2b5d)"><g class="wordmark-text-0" data-fill-palette-color="primary" id="SvgjsG3780"><path d="M3.55-34.2L22.7-34.2 22.1-32.05 13.9-32.05 9.4 0 7.05 0 11.6-32.05 3.25-32.05 3.55-34.2Z" fill="black"></path></g></svg></g></svg></g></svg></g></svg></g><g transform="matrix(1,0,0,1,0,81.04857489995669)"><svg viewBox="0 0 31.63184210526316 17.90285020008662" height="17.90285020008662" width="31.63184210526316"><g><svg xmlns="http://www.w3.org/2000/svg" xmlns:xlink="http://www.w3.org/1999/xlink" version="1.1" x="0" y="0" viewBox="11.822 31.85491095548784 77.02774999999998 43.59582552640113" enable-background="new 0 0 100 100" xml:space="preserve" height="17.90285020008662" width="31.63184210526316" class="icon-icon-0" data-fill-palette-color="accent" id="SvgjsSvg3779"><g fill="black"><path d="M17.399 59.888l11.733 11.734c0.621 0.621 1.628 0.621 2.249 0l3.985-3.986c0.621-0.62 0.621-1.627 0-2.248l-10.609-10.61c-0.622-0.62-0.622-1.628 0-2.249l10.609-10.609c0.621-0.622 0.621-1.628 0-2.25l-3.985-3.986c-0.622-0.621-1.628-0.621-2.249 0L17.399 47.418l-5.112 5.11c-0.62 0.621-0.62 1.629 0 2.249L17.399 59.888z" fill="black"></path><path d="M88.384 54.777c0.621-0.62 0.621-1.628 0-2.249l-5.11-5.11L71.54 35.684c-0.621-0.621-1.627-0.621-2.249 0l-3.985 3.986c-0.621 0.621-0.621 1.628 0 2.25l10.608 10.609c0.622 0.621 0.622 1.629 0 2.249l-10.608 10.61c-0.621 0.621-0.621 1.628 0 2.248l3.985 3.986c0.621 0.621 1.628 0.621 2.249 0l11.733-11.734L88.384 54.777z" fill="black"></path></g><path d="M43.502 75.334l-6.684-3.403c-0.492-0.25-0.703-0.823-0.469-1.282l19.506-38.304c0.234-0.457 0.822-0.624 1.314-0.374l6.683 3.403c0.493 0.251 0.703 0.825 0.47 1.282L44.814 74.96C44.581 75.418 43.995 75.585 43.502 75.334z" fill="black"></path></svg></g></svg></g></svg></g></svg></g></svg></g></svg></g><defs><mask></mask></defs></svg><rect width="320" height="360" fill="black" stroke="none" visibility="hidden"></rect></g></mask></svg><rect width="320" height="360" fill="black" stroke="none" visibility="hidden"></rect></g></mask><linearGradient x1="0" x2="1" y1="0.5" y2="0.5" id="856188ae-be16-4116-9f72-86d7def525a3"><stop stop-color="#f00b51" offset="0"></stop><stop stop-color="#730062" offset="1"></stop></linearGradient><rect width="320.000094" height="360" fill="url(#856188ae-be16-4116-9f72-86d7def525a3)" mask="url(#3189e1f5-981f-4c7c-9510-5c50f7b9aca6)" data-fill-palette-color="accent"></rect><mask id="b796da3d-00e3-492b-be5c-eb2078f25b20"><g id="SvgjsG3808"><svg viewBox="0 0 320 360" height="360" width="320"><g><svg></svg></g><g><svg viewBox="0 0 320 360" height="360" width="320"><g><path transform="translate(-74.99272,-51.79039) scale(4.65793,4.65793)" d="M20.6 59.9l0.8 1-0.4-1.3c-0.1-0.6-0.8 0.1-0.4 0.3M21.5 59.3c0.3 0.5 0.6 1 0.6 1.5 0 0.7 0.6 1 1.1 1.2-0.7-0.8-1.1-3-1.7-2.7M59.9 16.9c1.7 0 3.3-0.2 5.1 0.2 4.4 1.1 8.1 3.3 10.6 6.4l7 11.2c0.3 2.8 0.9 5.9 0.8 9.3 0.7 0 0.6-1 1.4-1.2-0.8 2-1.2 4.5-1.4 7.4-0.5-1.6 0-4 0.1-5.3-0.7 1.1-1.1 0.3-1.1-0.2 0.1-0.8-0.3-0.7-0.6-1-1.1-1-1.8-2.1-2.6-3.8 0.5-1.3 0.6-3.2-1-4.2-0.5-0.3-1.1-0.8-1.4-1.6-0.4-1.1-1.1-2.4-0.9-4.1 0.1-0.5-1.5 1.1-2.4 0.4-3.9-2.7-7.8-5.8-12.5-8.4-2.5 0-4.3-0.9-5.2-2-0.8-1-0.2-2.3 1-2.4 0.7 0 1.5-0.2 2.1 0.2 0.1-0.4 0.5-0.9 1-0.9M50 14.6l0.2 0.1c1 0.2 1.5 1.6 2.6 1.1 0 0.7 0.1 1.4-0.1 1.9-0.3 0.8-1.2 0.8-1.9 0.8-6.7-0.4-10.6 2.4-14.7 4.8-1.1 0.7-2.3 1.2-3.2 2.1-4.3 4-9 7.7-10.1 15.1l-0.9 8.2c-0.1 0.9-1.1 1.8-0.9 2.9l0.7 4.9c-0.7-0.7-1.1 0.2-0.9 0.6 0.1 0.3 0.5 1.3 1.1 0.4 0.8 1.5 1.6 4.4 2.7 5.7 3.4 4 7.8 7.6 11.4 11.2 0.9-0.2 1.6-0.2 1.8-0.8 0.3 0.6-0.3 1.2-0.8 1.3 1.6 1 3.4 1.9 5.8 2.1 3.1 0.2 6 0.7 8.7 1.4 1.4-0.4 2.8-0.6 4.3-0.7 0.5 0 0.8-0.8 1.4-1l0.1-1c0.6 0.9 0.5-0.3 0.1-0.9 0.7 0.6 0.9 1.1 1.2 1.5 0-0.3 0.8-1.4 0.8-0.1l0.2-1.3c0.3-0.2 0.4 1.1 0.7 0.2 0.3-0.9 0.9-0.2 1.5-0.5-0.2 0.4-0.1 1.2 0.6 0.7l0.8-0.7c0.5 1.2 1.3 0.7 1.7 0.5 4.4-2.8 8.8-6.1 13-9.4l-0.1 1.3 0.5-1.6c0.5 0.5 0.9 0.1 1.1-0.2 0.6-1 1.4-2 2.7-2.9-1.6 4.3-3.5 7.7-5.9 10.5l-1 1.2c0 0.7-0.2 1.6-1 1.7-0.4 0.1-1.2-0.2-1.8 0.4-0.3 0.4 0.7 1.2-0.1 0.6-0.7-0.5-1.4 0-2.2 0.2-0.6 0.2 0.4 0.8 0.6 1.2 0.2 0.4 0.4 0.8 0.3 1.3l-1.1-1.2c-1.3 0.7-2.1 2-3.2 3-0.5 0.4-0.3 1.1-0.3 1.7-0.7 0-1.5-0.2-1.9 0.2-0.3 0.4-0.2 1-0.2 1.6-1-0.1-1.1-1.6-2-1.3-0.9 0.2-1.9 0.3-2.7 0.8 0.6 1.2-1 0.5-0.8 0.7-1.5-0.9-2.8-1.6-4.4-1-3.4-1.1-7.6-0.6-10.7-0.2 0-0.5 0.1-1-0.1-1.1-0.2 0.5-0.8 0.3-0.7 0.3-1.9-1.3-3.8-2.1-5.8-3.2-1.8 0.2-3.5-0.7-4-1.2-1.4-1.3-3-0.6-4.3-0.9-2.8-0.7-3.8-3.6-4.1-5.6-0.2-1-1-1.4-1.3-1.3-1.3-4.2-3.3-8-4.9-11.9-0.4-1-0.3-2-0.3-3.1 0.5 0.2 1 0.1 0.9-0.6-0.5-3.3-1.7-5.8-3-8.2 0.7-3.4 0.8-7.4 2.4-10.4 1.4-2.7 4-4.1 5.8-6.4 0.6-0.8 0.6-1.9 1.2-2.6 2-2 4-4.1 6.2-5.9 1-0.8 2.2 0 3.7-0.3 0.5-1.8 2.5-3.4 4.4-2.9 0.8 0.2 2.4-1.9 2.9-2.1 0.8-0.3 0.4 0.8 0.4 1.5 1.9-1.5 4.5-2.3 6.9-3.2" fill="white" fill-rule="nonzero" stroke="none" stroke-width="1" stroke-linecap="butt" stroke-linejoin="miter" stroke-miterlimit="10" stroke-dasharray="" stroke-dashoffset="0" font-family="none" font-weight="none" font-size="none" text-anchor="none" style="mix-blend-mode: normal"></path></g><g transform="matrix(1,0,0,1,71.75302842105262,90)"><svg viewBox="0 0 176.49394315789476 180" height="180" width="176.49394315789476"><g><svg viewBox="0 0 176.49394315789476 180" height="180" width="176.49394315789476"><g><svg viewBox="0 0 176.49394315789476 180" height="180" width="176.49394315789476"><g transform="matrix(1,0,0,1,74.12552210526317,0)"><svg viewBox="0 0 102.36842105263159 180" height="180" width="102.36842105263159"><g id="SvgjsG3807"><svg viewBox="0 0 102.36842105263159 180" height="180" width="102.36842105263159" id="SvgjsSvg3806"><g><svg viewBox="0 0 102.36842105263159 180" height="180" width="102.36842105263159"><g transform="matrix(1,0,0,1,0,0)"><svg width="102.36842105263159" viewBox="3.25 -34.2 19.45 34.2" height="180" data-palette-color="url(#9649ad9f-1cea-4b73-9960-eb2f537a2b5d)"><g class="wordmark-text-0" data-fill-palette-color="primary" id="SvgjsG3805"></g></svg></g></svg></g></svg></g></svg></g><g transform="matrix(1,0,0,1,0,81.04857489995669)"><svg viewBox="0 0 31.63184210526316 17.90285020008662" height="17.90285020008662" width="31.63184210526316"><g><svg xmlns="http://www.w3.org/2000/svg" xmlns:xlink="http://www.w3.org/1999/xlink" version="1.1" x="0" y="0" viewBox="11.822 31.85491095548784 77.02774999999998 43.59582552640113" enable-background="new 0 0 100 100" xml:space="preserve" height="17.90285020008662" width="31.63184210526316" class="icon-icon-0" data-fill-palette-color="accent" id="SvgjsSvg3804"></svg></g></svg></g></svg></g></svg></g></svg></g></svg></g><defs><mask></mask></defs><mask><g id="SvgjsG3803"><svg viewBox="0 0 320 360" height="360" width="320"><g><svg></svg></g><g><svg viewBox="0 0 320 360" height="360" width="320"><g><path transform="translate(-74.99272,-51.79039) scale(4.65793,4.65793)" d="M20.6 59.9l0.8 1-0.4-1.3c-0.1-0.6-0.8 0.1-0.4 0.3M21.5 59.3c0.3 0.5 0.6 1 0.6 1.5 0 0.7 0.6 1 1.1 1.2-0.7-0.8-1.1-3-1.7-2.7M59.9 16.9c1.7 0 3.3-0.2 5.1 0.2 4.4 1.1 8.1 3.3 10.6 6.4l7 11.2c0.3 2.8 0.9 5.9 0.8 9.3 0.7 0 0.6-1 1.4-1.2-0.8 2-1.2 4.5-1.4 7.4-0.5-1.6 0-4 0.1-5.3-0.7 1.1-1.1 0.3-1.1-0.2 0.1-0.8-0.3-0.7-0.6-1-1.1-1-1.8-2.1-2.6-3.8 0.5-1.3 0.6-3.2-1-4.2-0.5-0.3-1.1-0.8-1.4-1.6-0.4-1.1-1.1-2.4-0.9-4.1 0.1-0.5-1.5 1.1-2.4 0.4-3.9-2.7-7.8-5.8-12.5-8.4-2.5 0-4.3-0.9-5.2-2-0.8-1-0.2-2.3 1-2.4 0.7 0 1.5-0.2 2.1 0.2 0.1-0.4 0.5-0.9 1-0.9M50 14.6l0.2 0.1c1 0.2 1.5 1.6 2.6 1.1 0 0.7 0.1 1.4-0.1 1.9-0.3 0.8-1.2 0.8-1.9 0.8-6.7-0.4-10.6 2.4-14.7 4.8-1.1 0.7-2.3 1.2-3.2 2.1-4.3 4-9 7.7-10.1 15.1l-0.9 8.2c-0.1 0.9-1.1 1.8-0.9 2.9l0.7 4.9c-0.7-0.7-1.1 0.2-0.9 0.6 0.1 0.3 0.5 1.3 1.1 0.4 0.8 1.5 1.6 4.4 2.7 5.7 3.4 4 7.8 7.6 11.4 11.2 0.9-0.2 1.6-0.2 1.8-0.8 0.3 0.6-0.3 1.2-0.8 1.3 1.6 1 3.4 1.9 5.8 2.1 3.1 0.2 6 0.7 8.7 1.4 1.4-0.4 2.8-0.6 4.3-0.7 0.5 0 0.8-0.8 1.4-1l0.1-1c0.6 0.9 0.5-0.3 0.1-0.9 0.7 0.6 0.9 1.1 1.2 1.5 0-0.3 0.8-1.4 0.8-0.1l0.2-1.3c0.3-0.2 0.4 1.1 0.7 0.2 0.3-0.9 0.9-0.2 1.5-0.5-0.2 0.4-0.1 1.2 0.6 0.7l0.8-0.7c0.5 1.2 1.3 0.7 1.7 0.5 4.4-2.8 8.8-6.1 13-9.4l-0.1 1.3 0.5-1.6c0.5 0.5 0.9 0.1 1.1-0.2 0.6-1 1.4-2 2.7-2.9-1.6 4.3-3.5 7.7-5.9 10.5l-1 1.2c0 0.7-0.2 1.6-1 1.7-0.4 0.1-1.2-0.2-1.8 0.4-0.3 0.4 0.7 1.2-0.1 0.6-0.7-0.5-1.4 0-2.2 0.2-0.6 0.2 0.4 0.8 0.6 1.2 0.2 0.4 0.4 0.8 0.3 1.3l-1.1-1.2c-1.3 0.7-2.1 2-3.2 3-0.5 0.4-0.3 1.1-0.3 1.7-0.7 0-1.5-0.2-1.9 0.2-0.3 0.4-0.2 1-0.2 1.6-1-0.1-1.1-1.6-2-1.3-0.9 0.2-1.9 0.3-2.7 0.8 0.6 1.2-1 0.5-0.8 0.7-1.5-0.9-2.8-1.6-4.4-1-3.4-1.1-7.6-0.6-10.7-0.2 0-0.5 0.1-1-0.1-1.1-0.2 0.5-0.8 0.3-0.7 0.3-1.9-1.3-3.8-2.1-5.8-3.2-1.8 0.2-3.5-0.7-4-1.2-1.4-1.3-3-0.6-4.3-0.9-2.8-0.7-3.8-3.6-4.1-5.6-0.2-1-1-1.4-1.3-1.3-1.3-4.2-3.3-8-4.9-11.9-0.4-1-0.3-2-0.3-3.1 0.5 0.2 1 0.1 0.9-0.6-0.5-3.3-1.7-5.8-3-8.2 0.7-3.4 0.8-7.4 2.4-10.4 1.4-2.7 4-4.1 5.8-6.4 0.6-0.8 0.6-1.9 1.2-2.6 2-2 4-4.1 6.2-5.9 1-0.8 2.2 0 3.7-0.3 0.5-1.8 2.5-3.4 4.4-2.9 0.8 0.2 2.4-1.9 2.9-2.1 0.8-0.3 0.4 0.8 0.4 1.5 1.9-1.5 4.5-2.3 6.9-3.2" fill="black" fill-rule="nonzero" stroke="none" stroke-width="1" stroke-linecap="butt" stroke-linejoin="miter" stroke-miterlimit="10" stroke-dasharray="" stroke-dashoffset="0" font-family="none" font-weight="none" font-size="none" text-anchor="none" style="mix-blend-mode: normal"></path></g><g transform="matrix(1,0,0,1,71.75302842105262,90)"><svg viewBox="0 0 176.49394315789476 180" height="180" width="176.49394315789476"><g><svg viewBox="0 0 176.49394315789476 180" height="180" width="176.49394315789476"><g><svg viewBox="0 0 176.49394315789476 180" height="180" width="176.49394315789476"><g transform="matrix(1,0,0,1,74.12552210526317,0)"><svg viewBox="0 0 102.36842105263159 180" height="180" width="102.36842105263159"><g id="SvgjsG3802"><svg viewBox="0 0 102.36842105263159 180" height="180" width="102.36842105263159" id="SvgjsSvg3801"><g><svg viewBox="0 0 102.36842105263159 180" height="180" width="102.36842105263159"><g transform="matrix(1,0,0,1,0,0)"><svg width="102.36842105263159" viewBox="3.25 -34.2 19.45 34.2" height="180" data-palette-color="url(#9649ad9f-1cea-4b73-9960-eb2f537a2b5d)"><g class="wordmark-text-0" data-fill-palette-color="primary" id="SvgjsG3800"><path d="M3.55-34.2L22.7-34.2 22.1-32.05 13.9-32.05 9.4 0 7.05 0 11.6-32.05 3.25-32.05 3.55-34.2Z" fill="black"></path></g></svg></g></svg></g></svg></g></svg></g><g transform="matrix(1,0,0,1,0,81.04857489995669)"><svg viewBox="0 0 31.63184210526316 17.90285020008662" height="17.90285020008662" width="31.63184210526316"><g><svg xmlns="http://www.w3.org/2000/svg" xmlns:xlink="http://www.w3.org/1999/xlink" version="1.1" x="0" y="0" viewBox="11.822 31.85491095548784 77.02774999999998 43.59582552640113" enable-background="new 0 0 100 100" xml:space="preserve" height="17.90285020008662" width="31.63184210526316" class="icon-icon-0" data-fill-palette-color="accent" id="SvgjsSvg3799"><g fill="black"><path d="M17.399 59.888l11.733 11.734c0.621 0.621 1.628 0.621 2.249 0l3.985-3.986c0.621-0.62 0.621-1.627 0-2.248l-10.609-10.61c-0.622-0.62-0.622-1.628 0-2.249l10.609-10.609c0.621-0.622 0.621-1.628 0-2.25l-3.985-3.986c-0.622-0.621-1.628-0.621-2.249 0L17.399 47.418l-5.112 5.11c-0.62 0.621-0.62 1.629 0 2.249L17.399 59.888z" fill="black"></path><path d="M88.384 54.777c0.621-0.62 0.621-1.628 0-2.249l-5.11-5.11L71.54 35.684c-0.621-0.621-1.627-0.621-2.249 0l-3.985 3.986c-0.621 0.621-0.621 1.628 0 2.25l10.608 10.609c0.622 0.621 0.622 1.629 0 2.249l-10.608 10.61c-0.621 0.621-0.621 1.628 0 2.248l3.985 3.986c0.621 0.621 1.628 0.621 2.249 0l11.733-11.734L88.384 54.777z" fill="black"></path></g><path d="M43.502 75.334l-6.684-3.403c-0.492-0.25-0.703-0.823-0.469-1.282l19.506-38.304c0.234-0.457 0.822-0.624 1.314-0.374l6.683 3.403c0.493 0.251 0.703 0.825 0.47 1.282L44.814 74.96C44.581 75.418 43.995 75.585 43.502 75.334z" fill="black"></path></svg></g></svg></g></svg></g></svg></g></svg></g></svg></g><defs><mask></mask></defs></svg><rect width="320" height="360" fill="black" stroke="none" visibility="hidden"></rect></g></mask><mask><g id="SvgjsG3798"><svg viewBox="0 0 320 360" height="360" width="320"><g><svg></svg></g><g><svg viewBox="0 0 320 360" height="360" width="320"><g><path transform="translate(-74.99272,-51.79039) scale(4.65793,4.65793)" d="M20.6 59.9l0.8 1-0.4-1.3c-0.1-0.6-0.8 0.1-0.4 0.3M21.5 59.3c0.3 0.5 0.6 1 0.6 1.5 0 0.7 0.6 1 1.1 1.2-0.7-0.8-1.1-3-1.7-2.7M59.9 16.9c1.7 0 3.3-0.2 5.1 0.2 4.4 1.1 8.1 3.3 10.6 6.4l7 11.2c0.3 2.8 0.9 5.9 0.8 9.3 0.7 0 0.6-1 1.4-1.2-0.8 2-1.2 4.5-1.4 7.4-0.5-1.6 0-4 0.1-5.3-0.7 1.1-1.1 0.3-1.1-0.2 0.1-0.8-0.3-0.7-0.6-1-1.1-1-1.8-2.1-2.6-3.8 0.5-1.3 0.6-3.2-1-4.2-0.5-0.3-1.1-0.8-1.4-1.6-0.4-1.1-1.1-2.4-0.9-4.1 0.1-0.5-1.5 1.1-2.4 0.4-3.9-2.7-7.8-5.8-12.5-8.4-2.5 0-4.3-0.9-5.2-2-0.8-1-0.2-2.3 1-2.4 0.7 0 1.5-0.2 2.1 0.2 0.1-0.4 0.5-0.9 1-0.9M50 14.6l0.2 0.1c1 0.2 1.5 1.6 2.6 1.1 0 0.7 0.1 1.4-0.1 1.9-0.3 0.8-1.2 0.8-1.9 0.8-6.7-0.4-10.6 2.4-14.7 4.8-1.1 0.7-2.3 1.2-3.2 2.1-4.3 4-9 7.7-10.1 15.1l-0.9 8.2c-0.1 0.9-1.1 1.8-0.9 2.9l0.7 4.9c-0.7-0.7-1.1 0.2-0.9 0.6 0.1 0.3 0.5 1.3 1.1 0.4 0.8 1.5 1.6 4.4 2.7 5.7 3.4 4 7.8 7.6 11.4 11.2 0.9-0.2 1.6-0.2 1.8-0.8 0.3 0.6-0.3 1.2-0.8 1.3 1.6 1 3.4 1.9 5.8 2.1 3.1 0.2 6 0.7 8.7 1.4 1.4-0.4 2.8-0.6 4.3-0.7 0.5 0 0.8-0.8 1.4-1l0.1-1c0.6 0.9 0.5-0.3 0.1-0.9 0.7 0.6 0.9 1.1 1.2 1.5 0-0.3 0.8-1.4 0.8-0.1l0.2-1.3c0.3-0.2 0.4 1.1 0.7 0.2 0.3-0.9 0.9-0.2 1.5-0.5-0.2 0.4-0.1 1.2 0.6 0.7l0.8-0.7c0.5 1.2 1.3 0.7 1.7 0.5 4.4-2.8 8.8-6.1 13-9.4l-0.1 1.3 0.5-1.6c0.5 0.5 0.9 0.1 1.1-0.2 0.6-1 1.4-2 2.7-2.9-1.6 4.3-3.5 7.7-5.9 10.5l-1 1.2c0 0.7-0.2 1.6-1 1.7-0.4 0.1-1.2-0.2-1.8 0.4-0.3 0.4 0.7 1.2-0.1 0.6-0.7-0.5-1.4 0-2.2 0.2-0.6 0.2 0.4 0.8 0.6 1.2 0.2 0.4 0.4 0.8 0.3 1.3l-1.1-1.2c-1.3 0.7-2.1 2-3.2 3-0.5 0.4-0.3 1.1-0.3 1.7-0.7 0-1.5-0.2-1.9 0.2-0.3 0.4-0.2 1-0.2 1.6-1-0.1-1.1-1.6-2-1.3-0.9 0.2-1.9 0.3-2.7 0.8 0.6 1.2-1 0.5-0.8 0.7-1.5-0.9-2.8-1.6-4.4-1-3.4-1.1-7.6-0.6-10.7-0.2 0-0.5 0.1-1-0.1-1.1-0.2 0.5-0.8 0.3-0.7 0.3-1.9-1.3-3.8-2.1-5.8-3.2-1.8 0.2-3.5-0.7-4-1.2-1.4-1.3-3-0.6-4.3-0.9-2.8-0.7-3.8-3.6-4.1-5.6-0.2-1-1-1.4-1.3-1.3-1.3-4.2-3.3-8-4.9-11.9-0.4-1-0.3-2-0.3-3.1 0.5 0.2 1 0.1 0.9-0.6-0.5-3.3-1.7-5.8-3-8.2 0.7-3.4 0.8-7.4 2.4-10.4 1.4-2.7 4-4.1 5.8-6.4 0.6-0.8 0.6-1.9 1.2-2.6 2-2 4-4.1 6.2-5.9 1-0.8 2.2 0 3.7-0.3 0.5-1.8 2.5-3.4 4.4-2.9 0.8 0.2 2.4-1.9 2.9-2.1 0.8-0.3 0.4 0.8 0.4 1.5 1.9-1.5 4.5-2.3 6.9-3.2" fill="black" fill-rule="nonzero" stroke="none" stroke-width="1" stroke-linecap="butt" stroke-linejoin="miter" stroke-miterlimit="10" stroke-dasharray="" stroke-dashoffset="0" font-family="none" font-weight="none" font-size="none" text-anchor="none" style="mix-blend-mode: normal"></path></g><g transform="matrix(1,0,0,1,71.75302842105262,90)"><svg viewBox="0 0 176.49394315789476 180" height="180" width="176.49394315789476"><g><svg viewBox="0 0 176.49394315789476 180" height="180" width="176.49394315789476"><g><svg viewBox="0 0 176.49394315789476 180" height="180" width="176.49394315789476"><g transform="matrix(1,0,0,1,74.12552210526317,0)"><svg viewBox="0 0 102.36842105263159 180" height="180" width="102.36842105263159"><g id="SvgjsG3797"><svg viewBox="0 0 102.36842105263159 180" height="180" width="102.36842105263159" id="SvgjsSvg3796"><g><svg viewBox="0 0 102.36842105263159 180" height="180" width="102.36842105263159"><g transform="matrix(1,0,0,1,0,0)"><svg width="102.36842105263159" viewBox="3.25 -34.2 19.45 34.2" height="180" data-palette-color="url(#9649ad9f-1cea-4b73-9960-eb2f537a2b5d)"><g class="wordmark-text-0" data-fill-palette-color="primary" id="SvgjsG3795"></g></svg></g></svg></g></svg></g></svg></g><g transform="matrix(1,0,0,1,0,81.04857489995669)"><svg viewBox="0 0 31.63184210526316 17.90285020008662" height="17.90285020008662" width="31.63184210526316"><g><svg xmlns="http://www.w3.org/2000/svg" xmlns:xlink="http://www.w3.org/1999/xlink" version="1.1" x="0" y="0" viewBox="11.822 31.85491095548784 77.02774999999998 43.59582552640113" enable-background="new 0 0 100 100" xml:space="preserve" height="17.90285020008662" width="31.63184210526316" class="icon-icon-0" data-fill-palette-color="accent" id="SvgjsSvg3794"><g fill="black"><path d="M17.399 59.888l11.733 11.734c0.621 0.621 1.628 0.621 2.249 0l3.985-3.986c0.621-0.62 0.621-1.627 0-2.248l-10.609-10.61c-0.622-0.62-0.622-1.628 0-2.249l10.609-10.609c0.621-0.622 0.621-1.628 0-2.25l-3.985-3.986c-0.622-0.621-1.628-0.621-2.249 0L17.399 47.418l-5.112 5.11c-0.62 0.621-0.62 1.629 0 2.249L17.399 59.888z" fill="black"></path><path d="M88.384 54.777c0.621-0.62 0.621-1.628 0-2.249l-5.11-5.11L71.54 35.684c-0.621-0.621-1.627-0.621-2.249 0l-3.985 3.986c-0.621 0.621-0.621 1.628 0 2.25l10.608 10.609c0.622 0.621 0.622 1.629 0 2.249l-10.608 10.61c-0.621 0.621-0.621 1.628 0 2.248l3.985 3.986c0.621 0.621 1.628 0.621 2.249 0l11.733-11.734L88.384 54.777z" fill="black"></path></g><path d="M43.502 75.334l-6.684-3.403c-0.492-0.25-0.703-0.823-0.469-1.282l19.506-38.304c0.234-0.457 0.822-0.624 1.314-0.374l6.683 3.403c0.493 0.251 0.703 0.825 0.47 1.282L44.814 74.96C44.581 75.418 43.995 75.585 43.502 75.334z" fill="black"></path></svg></g></svg></g></svg></g></svg></g></svg></g></svg></g><defs><mask></mask></defs><mask><g id="SvgjsG3793"><svg viewBox="0 0 320 360" height="360" width="320"><g><svg></svg></g><g><svg viewBox="0 0 320 360" height="360" width="320"><g><path transform="translate(-74.99272,-51.79039) scale(4.65793,4.65793)" d="M20.6 59.9l0.8 1-0.4-1.3c-0.1-0.6-0.8 0.1-0.4 0.3M21.5 59.3c0.3 0.5 0.6 1 0.6 1.5 0 0.7 0.6 1 1.1 1.2-0.7-0.8-1.1-3-1.7-2.7M59.9 16.9c1.7 0 3.3-0.2 5.1 0.2 4.4 1.1 8.1 3.3 10.6 6.4l7 11.2c0.3 2.8 0.9 5.9 0.8 9.3 0.7 0 0.6-1 1.4-1.2-0.8 2-1.2 4.5-1.4 7.4-0.5-1.6 0-4 0.1-5.3-0.7 1.1-1.1 0.3-1.1-0.2 0.1-0.8-0.3-0.7-0.6-1-1.1-1-1.8-2.1-2.6-3.8 0.5-1.3 0.6-3.2-1-4.2-0.5-0.3-1.1-0.8-1.4-1.6-0.4-1.1-1.1-2.4-0.9-4.1 0.1-0.5-1.5 1.1-2.4 0.4-3.9-2.7-7.8-5.8-12.5-8.4-2.5 0-4.3-0.9-5.2-2-0.8-1-0.2-2.3 1-2.4 0.7 0 1.5-0.2 2.1 0.2 0.1-0.4 0.5-0.9 1-0.9M50 14.6l0.2 0.1c1 0.2 1.5 1.6 2.6 1.1 0 0.7 0.1 1.4-0.1 1.9-0.3 0.8-1.2 0.8-1.9 0.8-6.7-0.4-10.6 2.4-14.7 4.8-1.1 0.7-2.3 1.2-3.2 2.1-4.3 4-9 7.7-10.1 15.1l-0.9 8.2c-0.1 0.9-1.1 1.8-0.9 2.9l0.7 4.9c-0.7-0.7-1.1 0.2-0.9 0.6 0.1 0.3 0.5 1.3 1.1 0.4 0.8 1.5 1.6 4.4 2.7 5.7 3.4 4 7.8 7.6 11.4 11.2 0.9-0.2 1.6-0.2 1.8-0.8 0.3 0.6-0.3 1.2-0.8 1.3 1.6 1 3.4 1.9 5.8 2.1 3.1 0.2 6 0.7 8.7 1.4 1.4-0.4 2.8-0.6 4.3-0.7 0.5 0 0.8-0.8 1.4-1l0.1-1c0.6 0.9 0.5-0.3 0.1-0.9 0.7 0.6 0.9 1.1 1.2 1.5 0-0.3 0.8-1.4 0.8-0.1l0.2-1.3c0.3-0.2 0.4 1.1 0.7 0.2 0.3-0.9 0.9-0.2 1.5-0.5-0.2 0.4-0.1 1.2 0.6 0.7l0.8-0.7c0.5 1.2 1.3 0.7 1.7 0.5 4.4-2.8 8.8-6.1 13-9.4l-0.1 1.3 0.5-1.6c0.5 0.5 0.9 0.1 1.1-0.2 0.6-1 1.4-2 2.7-2.9-1.6 4.3-3.5 7.7-5.9 10.5l-1 1.2c0 0.7-0.2 1.6-1 1.7-0.4 0.1-1.2-0.2-1.8 0.4-0.3 0.4 0.7 1.2-0.1 0.6-0.7-0.5-1.4 0-2.2 0.2-0.6 0.2 0.4 0.8 0.6 1.2 0.2 0.4 0.4 0.8 0.3 1.3l-1.1-1.2c-1.3 0.7-2.1 2-3.2 3-0.5 0.4-0.3 1.1-0.3 1.7-0.7 0-1.5-0.2-1.9 0.2-0.3 0.4-0.2 1-0.2 1.6-1-0.1-1.1-1.6-2-1.3-0.9 0.2-1.9 0.3-2.7 0.8 0.6 1.2-1 0.5-0.8 0.7-1.5-0.9-2.8-1.6-4.4-1-3.4-1.1-7.6-0.6-10.7-0.2 0-0.5 0.1-1-0.1-1.1-0.2 0.5-0.8 0.3-0.7 0.3-1.9-1.3-3.8-2.1-5.8-3.2-1.8 0.2-3.5-0.7-4-1.2-1.4-1.3-3-0.6-4.3-0.9-2.8-0.7-3.8-3.6-4.1-5.6-0.2-1-1-1.4-1.3-1.3-1.3-4.2-3.3-8-4.9-11.9-0.4-1-0.3-2-0.3-3.1 0.5 0.2 1 0.1 0.9-0.6-0.5-3.3-1.7-5.8-3-8.2 0.7-3.4 0.8-7.4 2.4-10.4 1.4-2.7 4-4.1 5.8-6.4 0.6-0.8 0.6-1.9 1.2-2.6 2-2 4-4.1 6.2-5.9 1-0.8 2.2 0 3.7-0.3 0.5-1.8 2.5-3.4 4.4-2.9 0.8 0.2 2.4-1.9 2.9-2.1 0.8-0.3 0.4 0.8 0.4 1.5 1.9-1.5 4.5-2.3 6.9-3.2" fill="black" fill-rule="nonzero" stroke="none" stroke-width="1" stroke-linecap="butt" stroke-linejoin="miter" stroke-miterlimit="10" stroke-dasharray="" stroke-dashoffset="0" font-family="none" font-weight="none" font-size="none" text-anchor="none" style="mix-blend-mode: normal"></path></g><g transform="matrix(1,0,0,1,71.75302842105262,90)"><svg viewBox="0 0 176.49394315789476 180" height="180" width="176.49394315789476"><g><svg viewBox="0 0 176.49394315789476 180" height="180" width="176.49394315789476"><g><svg viewBox="0 0 176.49394315789476 180" height="180" width="176.49394315789476"><g transform="matrix(1,0,0,1,74.12552210526317,0)"><svg viewBox="0 0 102.36842105263159 180" height="180" width="102.36842105263159"><g id="SvgjsG3792"><svg viewBox="0 0 102.36842105263159 180" height="180" width="102.36842105263159" id="SvgjsSvg3791"><g><svg viewBox="0 0 102.36842105263159 180" height="180" width="102.36842105263159"><g transform="matrix(1,0,0,1,0,0)"><svg width="102.36842105263159" viewBox="3.25 -34.2 19.45 34.2" height="180" data-palette-color="url(#9649ad9f-1cea-4b73-9960-eb2f537a2b5d)"><g class="wordmark-text-0" data-fill-palette-color="primary" id="SvgjsG3790"><path d="M3.55-34.2L22.7-34.2 22.1-32.05 13.9-32.05 9.4 0 7.05 0 11.6-32.05 3.25-32.05 3.55-34.2Z" fill="black"></path></g></svg></g></svg></g></svg></g></svg></g><g transform="matrix(1,0,0,1,0,81.04857489995669)"><svg viewBox="0 0 31.63184210526316 17.90285020008662" height="17.90285020008662" width="31.63184210526316"><g><svg xmlns="http://www.w3.org/2000/svg" xmlns:xlink="http://www.w3.org/1999/xlink" version="1.1" x="0" y="0" viewBox="11.822 31.85491095548784 77.02774999999998 43.59582552640113" enable-background="new 0 0 100 100" xml:space="preserve" height="17.90285020008662" width="31.63184210526316" class="icon-icon-0" data-fill-palette-color="accent" id="SvgjsSvg3789"><g fill="black"><path d="M17.399 59.888l11.733 11.734c0.621 0.621 1.628 0.621 2.249 0l3.985-3.986c0.621-0.62 0.621-1.627 0-2.248l-10.609-10.61c-0.622-0.62-0.622-1.628 0-2.249l10.609-10.609c0.621-0.622 0.621-1.628 0-2.25l-3.985-3.986c-0.622-0.621-1.628-0.621-2.249 0L17.399 47.418l-5.112 5.11c-0.62 0.621-0.62 1.629 0 2.249L17.399 59.888z" fill="black"></path><path d="M88.384 54.777c0.621-0.62 0.621-1.628 0-2.249l-5.11-5.11L71.54 35.684c-0.621-0.621-1.627-0.621-2.249 0l-3.985 3.986c-0.621 0.621-0.621 1.628 0 2.25l10.608 10.609c0.622 0.621 0.622 1.629 0 2.249l-10.608 10.61c-0.621 0.621-0.621 1.628 0 2.248l3.985 3.986c0.621 0.621 1.628 0.621 2.249 0l11.733-11.734L88.384 54.777z" fill="black"></path></g><path d="M43.502 75.334l-6.684-3.403c-0.492-0.25-0.703-0.823-0.469-1.282l19.506-38.304c0.234-0.457 0.822-0.624 1.314-0.374l6.683 3.403c0.493 0.251 0.703 0.825 0.47 1.282L44.814 74.96C44.581 75.418 43.995 75.585 43.502 75.334z" fill="black"></path></svg></g></svg></g></svg></g></svg></g></svg></g></svg></g><defs><mask></mask></defs></svg><rect width="320" height="360" fill="black" stroke="none" visibility="hidden"></rect></g></mask></svg><rect width="320" height="360" fill="black" stroke="none" visibility="hidden"></rect></g></mask></svg><rect width="320" height="360" fill="black" stroke="none" visibility="hidden"></rect></g></mask><linearGradient x1="0" x2="1" y1="0.5" y2="0.5" id="23305275-1948-4f37-9fe8-d1e5ac176e6a"><stop stop-color="#f00b51" offset="0"></stop><stop stop-color="#730062" offset="1"></stop></linearGradient></svg><rect width="320" height="360" fill="none" stroke="none" visibility="hidden"></rect></g></svg></g></svg>